<?xml version="1.0" standalone="no"?>
<!DOCTYPE svg PUBLIC "-//W3C//DTD SVG 20010904//EN"
 "http://www.w3.org/TR/2001/REC-SVG-20010904/DTD/svg10.dtd">
<svg version="1.0" xmlns="http://www.w3.org/2000/svg"
 width="3840.000000pt" height="2160.000000pt" viewBox="0 0 3840.000000 2160.000000"
 preserveAspectRatio="xMidYMid meet">

<g transform="translate(0.000000,2160.000000) scale(0.100000,-0.100000)"
fill="#000000" stroke="none">
<path d="M0 10800 l0 -10800 1450 0 c798 0 1450 2 1450 4 0 7 589 1816 600
1846 l10 25 -5 -26 c-3 -15 -14 -96 -26 -180 -18 -130 -22 -232 -29 -654 -8
-472 -10 -508 -33 -641 -23 -127 -67 -316 -83 -358 -5 -13 1 -16 30 -16 33 0
36 3 47 42 30 114 67 342 89 558 6 58 15 305 20 550 9 448 18 578 60 836 129
795 413 1383 910 1885 205 207 363 320 641 459 121 61 600 276 767 345 110 45
105 48 156 -71 l34 -82 -91 -33 c-157 -55 -753 -312 -918 -394 -247 -123 -470
-339 -686 -661 -411 -616 -544 -1116 -623 -2354 -29 -453 -56 -722 -99 -974
l-18 -106 58 0 c67 0 59 -12 88 145 48 260 70 541 71 886 0 149 42 648 81 959
49 392 139 702 278 951 160 288 484 725 662 894 111 105 455 292 734 400 108
42 447 155 465 155 4 0 45 -71 90 -157 98 -190 164 -291 263 -403 81 -93 105
-116 113 -107 3 3 -11 55 -30 116 -67 213 -116 491 -116 661 l0 65 49 34 c48
32 161 71 208 71 14 0 32 -14 50 -37 149 -202 332 -399 538 -580 175 -155 514
-427 522 -419 4 3 -6 113 -21 244 -15 130 -34 305 -41 387 -21 211 -39 688
-30 788 l7 84 51 18 c87 30 233 101 391 189 83 47 179 94 213 105 113 38 210
24 273 -39 46 -46 51 -42 73 50 31 129 41 228 41 420 0 215 -3 242 -76 745
-52 363 -65 567 -45 707 l8 57 52 -40 c124 -94 369 -194 587 -240 122 -25 220
-28 640 -15 234 7 315 6 450 -8 305 -29 436 -60 538 -125 64 -42 188 -159 237
-224 l28 -38 38 -1182 c34 -1074 42 -1267 56 -1254 2 3 30 558 62 1235 l58
1230 42 77 c77 144 209 294 298 339 30 15 94 33 150 43 136 23 541 23 843 -1
431 -35 639 -22 774 46 71 36 160 123 196 191 24 46 26 48 59 42 55 -10 118
-44 151 -81 28 -32 30 -40 30 -112 0 -104 -21 -183 -86 -335 -30 -70 -61 -158
-69 -195 -20 -90 -39 -1259 -21 -1281 16 -20 263 -137 441 -209 83 -33 259
-97 392 -142 240 -82 242 -82 238 -109 -3 -14 -21 -132 -41 -261 -42 -278
-102 -634 -175 -1037 -29 -161 -50 -295 -46 -299 16 -17 423 315 621 506 172
166 525 566 619 701 14 20 16 19 143 -35 71 -30 152 -63 179 -74 l50 -20 3
-63 c4 -80 -21 -292 -55 -476 -15 -78 -24 -145 -20 -149 10 -10 89 50 153 118
72 75 153 196 218 326 25 50 48 92 50 92 2 0 58 -23 123 -51 65 -28 210 -89
323 -136 232 -95 284 -122 390 -201 384 -285 861 -1049 1055 -1687 154 -509
271 -1321 292 -2037 l6 -218 80 0 c77 0 79 1 74 22 -21 85 -66 458 -112 938
-55 568 -130 985 -235 1300 -85 254 -274 661 -422 905 -423 699 -553 848 -883
1013 -130 64 -424 190 -545 232 -52 18 -99 37 -104 41 -5 4 13 59 39 122 l48
114 151 -64 c189 -80 522 -231 641 -291 272 -135 369 -237 698 -727 103 -154
233 -345 287 -424 201 -291 294 -527 364 -922 63 -351 143 -954 201 -1509 33
-314 69 -576 95 -697 l12 -53 45 0 c39 0 44 2 38 18 -31 72 -47 122 -56 166
-5 28 -32 272 -59 541 -108 1056 -203 1623 -337 2009 -63 180 -139 320 -313
571 -99 142 -249 383 -293 472 -56 111 -311 1084 -466 1778 -293 1314 -445
2376 -540 3775 -29 425 -66 1176 -72 1470 -1 39 -2 41 -9 18 -4 -14 -11 -129
-14 -255 -4 -125 -11 -390 -16 -588 -45 -1591 -137 -3120 -246 -4080 -64 -563
-153 -974 -303 -1400 -64 -180 -206 -503 -217 -492 -3 3 2 45 10 93 50 288
102 723 133 1114 15 190 18 344 18 985 0 476 -5 861 -13 1030 -18 364 -41 757
-46 762 -5 6 -15 -105 -26 -307 -59 -1066 -217 -1985 -452 -2625 -174 -474
-499 -920 -908 -1245 -115 -91 -238 -176 -245 -169 -2 3 2 32 10 64 42 180
154 811 214 1210 136 897 218 1675 271 2585 85 1476 130 3240 130 5136 0 691
3 902 15 1020 49 498 50 531 50 1272 0 393 3 694 7 670 64 -370 198 -1280 252
-1708 59 -466 125 -1166 161 -1715 17 -251 20 -274 35 -259 21 21 193 442 284
694 232 646 368 1224 407 1730 15 192 6 665 -16 910 -51 563 -153 1101 -316
1668 -47 165 -149 465 -156 459 -1 -2 28 -136 66 -298 175 -744 264 -1294 302
-1861 13 -203 7 -745 -11 -903 -67 -606 -209 -1190 -431 -1770 l-53 -140 -28
290 c-124 1294 -269 2275 -549 3720 -78 405 -80 405 -71 -20 11 -555 7 -1886
-6 -2160 -35 -674 -70 -983 -149 -1290 -85 -333 -237 -694 -397 -944 l-53 -83
-6 578 c-16 1518 -116 2411 -422 3784 -103 458 -305 1252 -340 1332 l-14 33
-1 -50 c0 -27 5 -113 10 -190 65 -944 56 -2084 -20 -2715 -81 -664 -261 -1317
-498 -1804 l-58 -119 -18 169 c-80 766 -262 1997 -386 2624 -94 476 -220 1013
-350 1488 -51 188 -65 256 -85 428 -53 442 -125 832 -211 1149 -43 158 -179
567 -198 598 -8 12 -19 39 -26 60 -18 57 -22 39 -5 -24 41 -155 158 -634 189
-776 78 -351 120 -652 137 -963 5 -107 16 -296 25 -420 31 -477 36 -707 31
-1245 -5 -528 -11 -655 -42 -1000 -43 -463 -123 -936 -210 -1233 -149 -513
-493 -1071 -944 -1535 -68 -70 -126 -126 -127 -124 -2 2 12 43 32 93 76 192
160 492 208 742 67 342 122 927 131 1377 4 256 2 250 -44 -105 -63 -492 -130
-884 -202 -1197 -45 -192 -156 -594 -168 -606 -13 -13 -182 361 -321 708 -262
656 -434 1287 -607 2225 -77 422 -73 404 -67 325 44 -566 174 -1295 325 -1825
103 -359 247 -782 384 -1127 40 -101 71 -183 70 -183 -13 0 -279 532 -378 757
-370 836 -600 1673 -671 2443 -86 923 11 2134 270 3369 25 117 43 215 41 217
-2 2 -27 -94 -56 -214 -277 -1136 -446 -2131 -530 -3112 -56 -641 -90 -1447
-92 -2165 l-1 -320 -29 110 c-73 278 -151 737 -184 1085 -31 339 -37 502 -43
1205 -3 396 -9 695 -13 665 -40 -335 -136 -1535 -173 -2170 -29 -486 -66
-1346 -66 -1539 0 -69 -4 -111 -9 -105 -12 13 -122 353 -181 559 -163 576
-269 1136 -327 1720 -25 257 -25 965 0 1255 76 877 279 1812 568 2624 72 202
38 132 -118 -239 -134 -320 -368 -976 -496 -1390 -328 -1056 -528 -2090 -686
-3535 -43 -392 -99 -1050 -113 -1335 l-3 -50 -29 45 c-54 82 -164 310 -225
464 -252 643 -354 1335 -322 2181 32 816 132 1646 342 2838 42 242 4 111 -91
-313 -182 -805 -358 -1965 -439 -2895 -68 -770 -160 -2448 -161 -2925 0 -58
-4 -111 -9 -119 -12 -18 -153 171 -263 352 -306 503 -490 1076 -555 1727 -21
216 -24 989 -5 1280 33 493 81 974 141 1435 16 121 32 249 35 285 l6 65 -16
-50 c-29 -92 -83 -348 -123 -585 -149 -880 -175 -1650 -96 -2845 24 -361 75
-941 101 -1155 l5 -45 -64 97 c-282 430 -521 1034 -636 1613 -65 327 -85 593
-78 1030 10 558 70 1059 183 1515 163 656 478 1353 897 1980 315 471 606 850
919 1196 263 290 266 294 123 179 -370 -297 -754 -727 -1314 -1470 -79 -104
-148 -194 -152 -200 -5 -5 6 36 25 90 129 384 366 820 639 1178 271 355 638
710 1009 974 743 529 1686 861 2748 967 524 53 1174 53 1695 0 1154 -116 2142
-478 2951 -1082 375 -279 750 -652 1040 -1032 758 -993 1257 -2337 1413 -3805
39 -357 42 -443 61 -1355 75 -3689 310 -6181 785 -8325 398 -1797 1073 -3846
1772 -5380 l59 -130 9242 -3 9242 -2 0 10800 0 10800 -19200 0 -19200 0 0
-10800z m8386 5989 c-14 -123 -32 -316 -41 -429 -9 -113 -19 -225 -23 -250
l-7 -44 -78 -22 -78 -22 6 32 c15 77 239 966 242 962 2 -2 -8 -104 -21 -227z
m5749 -448 c30 -135 53 -246 52 -248 -2 -1 -40 10 -85 24 l-82 27 0 96 c0 84
-10 321 -24 600 l-5 95 44 -175 c25 -96 70 -285 100 -419z m-1565 213 c27
-109 50 -205 50 -211 0 -9 -16 -13 -48 -13 l-48 0 -11 196 c-9 174 -8 243 3
231 2 -2 26 -93 54 -203z m-7800 76 c222 -17 389 -33 399 -39 6 -4 -6 -68 -29
-156 -117 -458 -203 -952 -276 -1580 -14 -126 -28 -236 -30 -244 -3 -10 -16
-12 -52 -7 -26 3 -153 9 -282 12 -210 5 -262 10 -485 46 -336 54 -381 71 -431
161 -50 93 -45 200 32 622 74 407 198 875 267 1010 53 105 146 160 293 174
124 12 445 12 594 1z m4894 -226 c5 -117 4 -133 -10 -138 -9 -4 -19 -5 -21 -2
-3 2 1 65 8 140 7 75 13 135 14 133 1 -1 5 -61 9 -133z m2982 -157 c2 -4 112
-483 149 -657 34 -154 35 -165 18 -177 -16 -12 -15 -13 3 -13 18 0 24 -23 67
-242 50 -257 117 -656 117 -693 0 -17 -11 -26 -47 -40 -49 -18 -273 -133 -273
-140 0 -2 24 7 54 21 29 13 103 42 164 64 l111 39 5 -27 c13 -63 48 -333 44
-337 -2 -2 -58 -20 -124 -39 -193 -55 -405 -146 -573 -246 -29 -17 -55 -29
-58 -27 -2 3 5 40 16 83 50 198 104 540 140 879 55 518 61 623 68 1129 l6 438
55 -6 c31 -4 57 -8 58 -9z m-2976 -99 c0 -24 5 -119 10 -213 35 -601 111
-1128 226 -1564 19 -73 33 -135 31 -137 -2 -2 -53 25 -114 59 -61 35 -154 83
-208 108 l-98 44 7 220 c7 235 21 543 32 689 l6 89 67 -6 66 -5 -67 20 -66 20
4 52 c3 28 13 164 24 301 30 378 28 365 56 365 22 0 24 -4 24 -42z m4464 -202
c48 -14 89 -26 91 -28 2 -2 19 -84 39 -183 146 -744 228 -1313 271 -1875 8
-107 15 -205 15 -218 0 -19 -11 -13 -82 49 -155 134 -358 254 -533 315 -44 15
-81 28 -82 28 -1 1 36 184 52 254 l6 23 67 -37 c92 -50 312 -195 397 -262 l70
-54 -84 78 c-105 98 -239 207 -354 285 -64 44 -86 65 -83 77 10 33 46 319 60
482 22 240 35 528 38 827 2 168 7 263 13 263 6 0 50 -11 99 -24z m-5829 -483
c0 -288 5 -500 13 -593 12 -139 57 -477 68 -512 3 -11 -12 -26 -54 -52 -70
-42 -253 -173 -302 -215 -30 -27 -20 -23 80 26 63 31 155 73 205 94 l89 38 24
-121 c13 -66 22 -121 20 -123 -2 -1 -57 -28 -123 -59 -188 -90 -361 -214 -537
-385 -32 -30 -58 -51 -58 -47 0 19 82 699 101 836 43 315 132 794 235 1264 30
138 56 251 57 252 4 4 152 42 167 43 14 1 16 -50 15 -446z m814 -633 c7 -113
14 -220 18 -239 l6 -33 -34 7 c-19 4 -35 9 -37 10 -2 2 2 117 9 256 7 138 16
241 20 228 4 -13 12 -116 18 -229z m-4270 -828 c0 -586 16 -810 86 -1217 13
-76 22 -141 20 -143 -2 -2 -52 -14 -112 -27 -221 -49 -352 -95 -464 -167 -68
-43 -110 -58 -167 -58 -39 0 -50 5 -82 39 -90 94 -276 616 -378 1061 -52 223
-102 491 -102 542 0 66 22 92 127 154 212 125 388 192 623 238 137 27 330 53
407 55 l42 1 0 -478z m4305 376 c3 -18 13 -95 23 -170 l18 -138 -25 0 c-14 0
-49 3 -78 7 l-53 6 6 91 c3 50 8 124 11 164 l6 72 43 0 c42 0 44 -2 49 -32z
m-5370 -73 c-60 -30 -136 -76 -168 -101 -33 -26 -166 -118 -295 -205 -540
-360 -994 -722 -1341 -1069 -453 -452 -887 -1066 -1217 -1720 -57 -113 -91
-171 -87 -150 114 687 444 1363 961 1966 117 137 348 367 475 472 386 320 881
592 1373 754 114 38 364 105 394 107 8 1 -35 -24 -95 -54z m5822 29 c49 -14
146 -48 216 -75 l127 -50 52 -157 c29 -86 67 -195 86 -242 18 -47 33 -88 33
-92 0 -4 -30 12 -67 34 -101 61 -335 171 -445 209 l-98 34 0 183 c0 100 2 182
4 182 2 0 44 -12 92 -26z m-2731 -159 c36 -369 98 -705 180 -975 24 -80 26
-105 35 -400 119 -3896 245 -6022 505 -8485 24 -230 43 -421 40 -423 -6 -6
-90 54 -189 137 -320 266 -608 646 -805 1063 -230 486 -420 1252 -547 2203
-15 110 -30 223 -34 250 -13 92 -11 -183 5 -545 42 -948 92 -1566 195 -2369
17 -129 29 -236 27 -238 -6 -5 -102 306 -146 470 -142 528 -266 1210 -345
1902 -115 997 -211 2566 -266 4300 -19 621 -22 706 -27 702 -2 -3 -10 -353
-18 -778 -39 -2073 -117 -3590 -235 -4565 -79 -648 -201 -1347 -356 -2042
l-28 -124 -55 -35 c-225 -144 -447 -377 -786 -828 -52 -70 -95 -124 -95 -121
0 2 36 157 79 343 421 1788 757 3606 915 4943 115 967 209 2195 232 3025 4
127 9 247 13 267 l6 38 85 -76 c46 -42 86 -71 88 -65 2 6 -10 95 -27 198 -51
313 -72 513 -77 753 l-5 225 54 -140 c144 -372 254 -576 446 -823 97 -125 265
-299 269 -279 2 8 -8 73 -22 144 -36 184 -73 435 -91 603 -29 281 -31 272 28
100 156 -448 294 -708 538 -1010 106 -131 230 -263 239 -253 4 4 13 238 19
518 24 1025 56 1688 111 2294 11 118 20 226 20 240 0 62 10 2 25 -144z m-1830
-383 c9 -48 25 -123 36 -167 19 -75 20 -87 8 -195 -17 -141 -17 -499 0 -679 6
-73 10 -135 8 -137 -8 -8 -68 497 -92 766 -15 179 -21 683 -8 730 5 16 12 -19
20 -103 6 -71 19 -167 28 -215z m4211 -69 c6 -2 14 -15 16 -28 5 -22 3 -23
-16 -13 -12 6 -50 22 -86 35 l-65 24 69 -6 c38 -4 75 -9 82 -12z m3854 -41 c0
-21 -8 -32 -36 -47 -93 -50 -230 -218 -294 -358 -31 -69 -73 -198 -66 -204 2
-3 25 3 50 11 84 29 163 16 223 -37 137 -120 35 -337 -166 -354 -42 -4 -68 0
-103 15 l-46 20 -6 -21 c-12 -44 -6 -382 8 -467 36 -219 139 -421 304 -592 93
-97 121 -113 242 -138 212 -44 599 -33 685 20 46 28 186 177 235 249 95 142
152 304 187 538 14 94 18 181 17 423 0 300 0 307 -27 405 -44 162 -116 300
-209 395 -43 45 -43 45 -8 23 121 -76 231 -164 341 -273 l126 -125 7 -139 c9
-209 7 -627 -5 -1012 -6 -189 -9 -349 -7 -355 6 -17 143 157 227 286 155 239
314 628 373 916 15 75 24 103 26 83 2 -18 -6 -238 -17 -490 -12 -253 -24 -589
-28 -749 l-6 -290 -49 -105 c-126 -269 -231 -534 -379 -960 -167 -483 -302
-745 -510 -995 -212 -254 -534 -482 -1305 -923 -685 -391 -1121 -590 -1443
-657 -312 -66 -411 -56 -745 72 -531 204 -1259 541 -1636 757 -180 104 -420
264 -555 372 -142 113 -389 361 -486 489 -184 242 -253 381 -390 795 -56 168
-139 404 -186 525 -47 121 -103 272 -124 337 -93 277 -145 885 -124 1453 l7
210 42 -145 c23 -80 53 -172 66 -205 50 -123 249 -519 253 -505 3 8 13 110 22
225 9 116 30 342 45 503 l29 293 38 52 c162 222 421 464 608 568 l40 23 -49
-50 c-60 -61 -93 -109 -140 -202 -34 -67 -93 -248 -84 -257 2 -2 21 0 43 5 64
15 107 11 160 -14 152 -71 193 -236 82 -333 -66 -58 -181 -68 -260 -24 -21 12
-40 21 -44 21 -11 0 5 -311 22 -428 32 -225 90 -391 185 -533 49 -72 189 -221
235 -249 86 -53 473 -64 685 -20 121 25 149 41 242 138 126 131 213 274 267
438 44 136 55 242 48 486 -11 428 -59 636 -193 839 l-54 83 0 83 c0 46 3 83 8
83 4 0 66 -24 137 -53 145 -59 257 -117 385 -201 84 -55 85 -55 88 -31 5 35
-24 128 -61 199 -18 34 -33 64 -35 67 -4 9 111 30 119 22 3 -5 32 -69 64 -143
167 -394 445 -924 706 -1349 49 -79 89 -148 89 -154 0 -5 -22 -51 -49 -101
-50 -93 -77 -163 -67 -173 8 -8 131 62 217 123 273 197 552 528 788 938 134
232 302 591 365 782 l27 81 50 -10 c27 -5 48 -13 47 -16 -2 -3 -19 -37 -39
-76 -37 -70 -64 -166 -58 -198 3 -14 15 -10 73 29 177 119 426 234 621 288
122 33 135 33 135 -2z m-3701 -1175 c68 -67 108 -125 132 -193 35 -98 19 -194
-58 -354 -38 -79 -59 -109 -127 -176 -94 -93 -205 -156 -314 -179 -99 -21
-263 -19 -355 4 -142 37 -203 82 -296 221 -152 228 -146 448 20 656 45 57 85
92 93 82 2 -2 9 -25 15 -53 21 -86 84 -206 140 -267 76 -83 142 -113 251 -113
73 0 93 4 141 28 113 55 208 194 247 358 18 78 16 79 111 -14z m3745 -131 c43
-93 118 -176 195 -213 48 -24 68 -28 141 -28 109 0 175 30 251 113 56 61 119
181 140 267 6 28 13 51 15 53 8 10 48 -25 92 -80 168 -212 175 -428 21 -658
-93 -139 -154 -184 -296 -221 -92 -23 -256 -25 -355 -4 -109 23 -220 86 -314
179 -68 67 -89 97 -127 176 -58 119 -81 207 -74 281 9 101 77 210 192 307 l50
43 17 -70 c9 -39 33 -104 52 -145z m-8047 172 c-3 -8 -6 -5 -6 6 -1 11 2 17 5
13 3 -3 4 -12 1 -19z m10032 -1682 c-5 -131 -20 -380 -34 -553 -14 -173 -25
-319 -25 -323 0 -10 -45 -5 -148 16 -54 12 -82 24 -109 47 -65 57 -66 70 -17
236 50 169 102 322 150 439 39 94 183 386 189 381 2 -2 -1 -111 -6 -243z
m-7836 -2 c66 -149 133 -347 187 -556 l48 -187 -20 -41 c-23 -45 -68 -74 -133
-85 -22 -3 -49 -8 -61 -10 -24 -5 -19 -45 -48 435 -16 266 -27 554 -21 548 3
-2 24 -49 48 -104z m395 -1150 c49 -98 142 -230 261 -371 l110 -132 7 -293 c6
-284 -7 -1254 -26 -1938 -15 -538 -20 -980 -10 -930 48 247 134 1133 160 1660
13 262 30 919 30 1163 l0 178 88 -80 c195 -179 434 -346 654 -457 64 -32 67
-35 72 -76 8 -62 39 -649 35 -651 -2 -2 -59 -24 -126 -51 -166 -66 -281 -136
-357 -217 -85 -90 -91 -114 -90 -354 l1 -190 58 -280 c58 -276 59 -283 62
-475 3 -107 1 -226 -4 -265 l-8 -70 -100 -6 c-189 -12 -238 -29 -414 -144 -55
-36 -142 -85 -193 -110 -105 -49 -298 -118 -307 -110 -6 7 -51 541 -115 1375
-105 1365 -139 1954 -153 2630 l-6 335 71 18 c39 10 99 35 133 56 l63 38 37
-96 c20 -53 50 -123 67 -157z m7270 150 c52 -13 106 -24 120 -24 l25 0 -6
-717 c-13 -1325 -48 -2039 -149 -2982 -25 -238 -14 -245 -107 74 -100 343
-155 621 -217 1110 -14 116 -30 217 -35 225 -19 32 7 -535 42 -890 28 -297 47
-387 140 -685 72 -230 81 -275 81 -402 0 -62 -3 -116 -6 -122 -4 -5 -35 4 -75
22 l-68 31 -37 151 c-81 332 -156 778 -190 1140 -65 669 -44 1583 60 2650 l15
160 64 150 c35 83 69 162 74 177 l10 27 83 -35 c45 -20 125 -46 176 -60z
m-504 -494 c-22 -169 -63 -588 -79 -815 -66 -927 -39 -1634 95 -2455 30 -185
86 -489 96 -522 5 -16 -6 -14 -77 12 -238 88 -450 186 -572 264 l-58 37 3 437
3 437 67 155 c79 184 100 259 102 361 1 67 -2 81 -26 117 -34 51 -126 128
-217 182 l-69 41 -6 72 c-5 67 -37 963 -36 1033 0 29 10 39 118 115 319 224
485 379 638 596 16 23 30 41 31 40 1 -1 -5 -49 -13 -107z m-920 -722 c4 -28
47 -921 46 -969 0 -14 -16 -11 -108 17 -181 55 -345 82 -632 104 -80 6 -160
13 -177 16 l-33 5 0 158 0 159 138 78 c180 102 477 283 627 383 66 43 123 80
127 80 4 1 9 -14 12 -31z m3546 -558 c160 -1213 333 -2199 525 -2988 74 -303
260 -983 292 -1068 4 -10 -42 28 -103 84 -219 208 -322 268 -999 579 -76 35
-141 65 -142 67 -1 1 15 83 37 182 79 360 152 817 194 1219 57 537 106 1373
123 2096 5 199 10 289 15 259 4 -25 30 -218 58 -430z m-11535 55 c59 -951 195
-2063 386 -3164 17 -95 29 -174 27 -176 -2 -1 -82 -36 -178 -78 -240 -103
-393 -176 -607 -290 -100 -53 -183 -97 -185 -97 -3 0 13 75 34 168 104 457
195 963 253 1407 77 596 175 1620 227 2385 15 226 21 206 43 -155z m4108 30
l97 -38 0 -153 c0 -149 0 -152 -22 -158 -13 -3 -95 -6 -183 -6 -88 0 -198 -5
-244 -10 -47 -5 -87 -7 -90 -5 -4 5 -29 447 -30 542 l-1 41 188 -87 c103 -48
231 -105 285 -126z m383 -176 c393 -186 787 -353 904 -382 234 -58 394 -44
700 61 253 87 502 192 758 321 l102 51 0 -370 c0 -203 -1 -370 -2 -371 -2 0
-158 -5 -348 -9 -372 -10 -436 -17 -531 -66 -58 -29 -133 -102 -277 -269 -47
-55 -94 -109 -103 -119 -18 -19 -19 -18 -71 26 -174 148 -374 272 -463 287
-87 15 -264 28 -562 42 l-263 13 0 423 c0 350 2 423 14 423 7 0 71 -27 142
-61z m-286 -556 l0 -256 -187 6 c-354 12 -546 59 -739 182 -28 18 -67 47 -87
65 l-38 33 38 27 c21 15 67 44 103 63 181 100 359 133 718 136 l192 1 0 -257z
m3135 222 c355 -31 576 -76 636 -131 44 -40 11 -111 -88 -185 -52 -40 -73 -49
-135 -59 -82 -14 -378 -7 -558 13 l-105 12 -3 183 -2 182 42 0 c24 0 120 -7
213 -15z m3384 -1911 c1 -203 -4 -431 -10 -505 -11 -146 -34 -337 -41 -344 -2
-3 -59 14 -126 38 -93 32 -122 46 -118 57 147 519 219 819 262 1094 17 109 20
115 26 75 3 -24 7 -211 7 -415z m-10042 154 c-3 -8 -6 -5 -6 6 -1 11 2 17 5
13 3 -3 4 -12 1 -19z m148 -536 c25 -77 66 -191 90 -253 25 -62 43 -114 42
-115 -10 -9 -164 -51 -169 -46 -14 15 -93 646 -103 827 l-5 100 49 -186 c27
-102 70 -249 96 -327z m2195 402 c35 -14 39 -20 45 -62 3 -26 1 -71 -5 -101
-5 -29 -10 -55 -10 -56 0 -2 -19 2 -42 7 -24 5 -81 8 -128 5 -108 -7 -205 -41
-377 -134 -120 -66 -270 -132 -389 -173 l-52 -18 -11 56 c-6 30 -11 72 -11 92
l0 37 77 28 c130 46 270 109 474 213 108 56 219 108 245 116 55 18 125 14 184
-10z m5358 -38 c162 -81 524 -232 784 -326 118 -43 118 -43 129 -82 11 -43 5
-84 -19 -134 l-15 -32 -71 20 c-231 63 -506 167 -762 288 -127 59 -118 44
-131 213 -4 64 -3 87 6 87 6 0 42 -15 79 -34z m-7334 -861 c30 -38 52 -72 48
-76 -4 -3 -36 -16 -72 -29 -36 -12 -100 -40 -144 -62 -43 -22 -81 -37 -84 -34
-11 11 -7 185 4 196 11 11 186 81 191 77 0 -1 26 -33 57 -72z m9606 -109 c0
-41 -19 -168 -26 -175 -3 -3 -74 30 -158 74 l-152 79 29 76 28 76 140 -49
c138 -50 139 -50 139 -81z m-15268 -3402 c234 -70 386 -254 422 -511 l6 -42
-63 6 c-125 11 -177 -30 -177 -142 0 -96 36 -140 123 -153 l47 -7 -33 -50 -32
-49 -3 32 -3 32 -180 0 -179 0 0 -35 0 -35 178 -2 177 -3 -50 -47 c-103 -98
-244 -152 -395 -151 -255 1 -475 167 -552 418 -30 97 -30 243 0 340 68 221
257 384 487 419 49 7 170 -4 227 -20z m399 -616 c17 -19 20 -31 16 -68 -3 -25
-11 -58 -18 -73 -11 -24 -17 -27 -65 -27 -66 0 -84 21 -84 97 0 69 22 93 85
93 33 0 50 -6 66 -22z"/>
<path d="M11195 11411 c-49 -30 -68 -58 -73 -109 -5 -55 14 -162 29 -162 29 0
86 195 77 265 l-3 25 -30 -19z"/>
<path d="M10692 9509 c-137 -9 -268 -31 -286 -49 -29 -29 17 -29 219 0 116 16
264 36 330 44 l120 14 -125 -1 c-69 0 -185 -4 -258 -8z"/>
<path d="M11370 9504 c119 -14 524 -71 573 -81 42 -8 34 22 -11 40 -73 29
-369 58 -582 56 l-95 -1 115 -14z"/>
<path d="M690 811 c0 -142 13 -217 42 -248 50 -53 163 -55 221 -3 28 25 32 34
35 97 5 84 -11 123 -62 147 -38 18 -111 21 -150 6 l-26 -10 0 65 0 65 -30 0
-30 0 0 -119z m220 -63 c25 -27 28 -112 4 -146 -22 -32 -116 -32 -138 0 -24
34 -21 123 4 148 29 29 102 28 130 -2z"/>
<path d="M384 803 c4 -10 28 -76 55 -148 l48 -130 39 -3 39 -3 37 98 c20 54
45 122 57 151 l21 52 -33 0 c-32 0 -32 0 -71 -115 -22 -63 -42 -115 -46 -115
-3 0 -23 52 -43 115 l-38 115 -35 0 c-29 0 -34 -3 -30 -17z"/>
<path d="M1015 580 c-11 -35 3 -60 35 -60 32 0 46 25 35 60 -4 14 -15 20 -35
20 -20 0 -31 -6 -35 -20z"/>
<path d="M8880 20600 c-14 -4 -97 -32 -185 -60 -434 -141 -711 -280 -940 -472
-89 -75 -214 -198 -185 -183 8 5 78 47 155 95 328 204 668 386 1025 546 162
73 211 101 130 74z"/>
<path d="M13095 20403 c6 -6 64 -51 130 -101 187 -140 306 -243 491 -425 185
-181 309 -322 444 -503 352 -471 700 -1252 940 -2103 39 -140 55 -185 45 -125
-3 16 -14 83 -25 149 -134 782 -426 1559 -759 2018 -205 283 -522 588 -872
840 -133 96 -421 278 -394 250z"/>
<path d="M8412 19748 c-154 -141 -312 -319 -428 -483 -81 -114 -150 -234 -234
-407 -76 -157 -195 -446 -188 -454 3 -2 39 62 82 142 230 434 449 765 751
1139 69 85 124 155 122 155 -2 0 -49 -42 -105 -92z"/>
<path d="M10111 19244 c0 -11 3 -14 6 -6 3 7 2 16 -1 19 -3 4 -6 -2 -5 -13z"/>
<path d="M10101 19204 c0 -11 3 -14 6 -6 3 7 2 16 -1 19 -3 4 -6 -2 -5 -13z"/>
<path d="M16130 17930 c0 -3 29 -88 64 -190 236 -682 440 -1480 550 -2150 140
-853 215 -2042 204 -3228 -3 -260 -4 -471 -2 -470 5 6 45 475 59 703 66 1057
38 2103 -76 2865 -86 575 -261 1198 -514 1835 -109 275 -282 661 -285 635z"/>
<path d="M7331 17904 c0 -11 3 -14 6 -6 3 7 2 16 -1 19 -3 4 -6 -2 -5 -13z"/>
<path d="M8910 4908 c64 -62 158 -143 210 -180 256 -182 618 -305 1120 -382
175 -27 470 -60 476 -53 2 2 -49 14 -114 27 -424 82 -861 211 -1148 338 -181
80 -430 215 -574 312 -92 61 -89 56 30 -62z"/>
<path d="M13430 4788 c-178 -78 -518 -205 -705 -263 -266 -82 -533 -140 -885
-191 l-165 -24 140 6 c391 15 813 83 1085 174 183 62 389 164 588 292 136 88
130 89 -58 6z"/>
<path d="M11207 3790 c-3 -30 -11 -291 -17 -580 -6 -289 -17 -824 -25 -1190
-22 -1014 -37 -1999 -30 -2010 3 -6 51 -10 106 -10 l99 0 -1 48 c-3 280 -127
3783 -132 3742z"/>
<path d="M17500 2763 c0 -5 -13 -95 -30 -199 -46 -293 -86 -618 -135 -1109
-94 -935 -132 -1156 -250 -1437 -7 -17 2 -18 107 -18 l115 0 21 158 c77 564
122 1091 152 1732 17 387 31 872 26 878 -3 3 -6 1 -6 -5z"/>
<path d="M16627 2060 c-3 -47 -11 -213 -17 -370 -20 -530 -56 -984 -110 -1419
-17 -129 -30 -243 -30 -253 0 -16 10 -18 109 -18 l109 0 7 178 c12 276 -16
1233 -54 1847 l-7 120 -7 -85z"/>
<path d="M5862 1135 c-24 -550 -46 -1030 -49 -1067 l-6 -68 83 0 83 0 -6 162
c-4 90 -16 543 -27 1008 -11 465 -24 872 -28 905 -5 39 -22 -283 -50 -940z"/>
<path d="M17990 2083 c0 -6 -18 -152 -39 -325 -46 -360 -75 -640 -96 -918 -13
-175 -18 -273 -41 -713 l-6 -127 97 0 97 0 -6 32 c-3 18 -11 139 -17 268 -12
245 -7 808 12 1449 5 183 7 336 4 339 -3 3 -5 0 -5 -5z"/>
<path d="M4865 1970 c3 -47 16 -238 30 -425 40 -566 49 -763 49 -1163 l1 -382
73 0 74 0 -6 72 c-4 40 -13 165 -22 278 -21 285 -59 677 -90 920 -31 256 -103
762 -109 775 -3 6 -3 -28 0 -75z"/>
</g>
</svg>
